<svg fill="#000000" xmlns="http://www.w3.org/2000/svg"  viewBox="0 0 50 50" width="50px" height="50px"><path d="M 25 5 C 15.601563 5 8 10.800781 8 18 L 8 20.527344 C 4.507813 22.046875 2 26.589844 2 32 C 2 38.398438 5.5 43.601563 10 44 L 10 18 C 10 11.898438 16.699219 7 25 7 C 33.300781 7 40 11.898438 40 18 L 40 44 C 44.5 43.601563 48 38.398438 48 32 C 48 26.589844 45.492188 22.046875 42 20.527344 L 42 18 C 42 10.800781 34.398438 5 25 5 Z M 12 20.199219 L 12 43.800781 C 12.699219 43.601563 13.398438 43.300781 14 42.902344 L 14 21.097656 C 13.398438 20.699219 12.699219 20.398438 12 20.199219 Z M 38 20.199219 C 37.300781 20.398438 36.601563 20.699219 36 21.097656 L 36 42.902344 C 36.601563 43.300781 37.300781 43.601563 38 43.800781 Z M 24.402344 21 L 22.300781 34.402344 L 19.402344 24 L 17.300781 32.902344 L 16 29.5 L 16 33.597656 L 17.699219 38 L 19.597656 30 L 22.699219 41.597656 L 24.597656 29 L 27.402344 41.097656 L 30.402344 30.097656 L 32.300781 38.402344 L 34 34.5 L 34 30.800781 L 32.699219 33.597656 L 30.597656 23.902344 L 27.597656 34.902344 Z M 8 22.800781 L 8 41.199219 C 5.699219 39.597656 4 36 4 32 C 4 28 5.699219 24.402344 8 22.800781 Z M 42 22.800781 C 44.300781 24.300781 46 27.898438 46 32 C 46 36.101563 44.300781 39.597656 42 41.199219 Z"/></svg>