<?xml version="1.0"?><svg fill="#000000" xmlns="http://www.w3.org/2000/svg"  viewBox="0 0 24 24" width="24px" height="24px">    <path d="M 5 3 C 3.9 3 3 3.9 3 5 L 3 19 C 3 20.1 3.9 21 5 21 L 19 21 C 20.1 21 21 20.1 21 19 L 21 5 C 21 3.9 20.1 3 19 3 L 5 3 z M 5 5 L 19 5 L 19 19 L 5 19 L 5 5 z M 7 8 L 7 15.90625 L 8.6738281 15.90625 L 8.6738281 13.115234 L 9.7890625 13.115234 C 10.998062 13.115234 12.302734 12.464516 12.302734 10.603516 C 12.302734 10.139516 12.022266 8 9.6972656 8 L 7 8 z M 8.6738281 9.3027344 L 9.7890625 9.3027344 C 10.440062 9.3027344 10.720703 9.9525156 10.720703 10.603516 C 10.720703 11.254516 10.533062 11.8125 9.7890625 11.8125 L 8.6738281 11.8125 L 8.6738281 9.3027344 z M 15.169922 9.953125 C 14.425922 9.953125 13.123047 10.325703 13.123047 11.720703 C 13.123047 13.580703 15.820312 13.488172 15.820312 14.326172 C 15.820313 14.698172 15.541922 14.884766 15.169922 14.884766 C 14.983922 14.884766 14.425781 14.790875 14.425781 14.046875 L 12.9375 14.046875 C 12.9375 14.976875 13.682875 16 15.171875 16 C 15.915875 16 17.310547 15.721172 17.310547 14.326172 C 17.310547 12.279172 14.613281 12.559906 14.613281 11.628906 C 14.613281 11.256906 14.892875 11.070312 15.171875 11.070312 C 15.543875 11.070312 15.728516 11.349453 15.728516 11.814453 L 17.310547 11.814453 C 17.310547 10.791453 16.565922 9.953125 15.169922 9.953125 z"/></svg>