<svg fill="#000000" xmlns="http://www.w3.org/2000/svg"  viewBox="0 0 50 50" width="50px" height="50px"><path d="M 8.4375 2 C 6.539063 2.023438 4.992188 3.605469 5 5.5 C 5 5.511719 5 5.519531 5 5.53125 L 5 35.96875 C 4.972656 36.101563 4.972656 36.242188 5 36.375 L 5 44.5 C 4.996094 45.105469 5.140625 45.691406 5.4375 46.21875 C 6.378906 47.882813 8.523438 48.503906 10.1875 47.5625 L 12.40625 46.3125 C 12.496094 46.273438 12.582031 46.21875 12.65625 46.15625 L 40.03125 30.78125 C 40.050781 30.773438 40.074219 30.761719 40.09375 30.75 L 40.125 30.75 C 40.148438 30.730469 40.167969 30.710938 40.1875 30.6875 L 40.21875 30.6875 C 40.230469 30.675781 40.238281 30.667969 40.25 30.65625 L 40.28125 30.65625 C 40.3125 30.636719 40.34375 30.617188 40.375 30.59375 L 45.625 27.65625 C 46.101563 27.382813 46.507813 26.976563 46.78125 26.5 C 47.613281 25.042969 47.082031 23.175781 45.625 22.34375 L 39 18.625 C 38.90625 18.542969 38.800781 18.480469 38.6875 18.4375 L 10.1875 2.4375 C 9.652344 2.132813 9.050781 1.992188 8.4375 2 Z M 8.46875 4 C 8.730469 3.996094 8.992188 4.058594 9.21875 4.1875 L 36.28125 19.40625 L 34.1875 20.5625 L 27.71875 16.9375 C 27.4375 16.773438 27.109375 16.683594 26.78125 16.6875 C 25.789063 16.699219 24.988281 17.539063 25 18.53125 L 25 20.375 L 16.1875 15.4375 C 15.773438 15.203125 15.324219 15.082031 14.875 15.03125 C 13.527344 14.878906 12.140625 15.535156 11.4375 16.78125 C 11.140625 17.308594 10.996094 17.894531 11 18.5 L 11 33.5625 L 7.9375 35.28125 C 7.648438 35.445313 7.316406 35.484375 7 35.4375 L 7 5.5 C 6.988281 4.671875 7.640625 4.011719 8.46875 4 Z M 14.375 17 C 14.660156 16.976563 14.949219 17.035156 15.21875 17.1875 L 25 22.6875 L 25 25.71875 L 13 32.4375 L 13 18.5 C 13 18.242188 13.0625 17.972656 13.1875 17.75 C 13.441406 17.300781 13.898438 17.035156 14.375 17 Z M 27 18.8125 L 38 25 L 27 31.1875 Z M 38.3125 20.53125 L 44.625 24.09375 C 45.144531 24.390625 45.328125 25.011719 45.03125 25.53125 C 44.9375 25.695313 44.789063 25.8125 44.625 25.90625 L 39.71875 28.65625 L 37.65625 27.5 L 39.5 26.46875 C 39.761719 26.320313 39.976563 26.105469 40.125 25.84375 C 40.582031 25.050781 40.292969 23.988281 39.5 23.53125 L 36.21875 21.6875 Z M 25 28 L 25 31.46875 C 24.996094 31.796875 25.085938 32.09375 25.25 32.375 C 25.746094 33.238281 26.859375 33.558594 27.71875 33.0625 L 35.625 28.625 L 37.6875 29.8125 L 13 43.6875 L 13 34.75 Z M 11 35.875 L 11 44.8125 L 9.21875 45.8125 C 8.496094 46.21875 7.59375 45.972656 7.1875 45.25 C 7.058594 45.023438 7 44.757813 7 44.5 L 7 37.46875 C 7.652344 37.503906 8.324219 37.355469 8.90625 37.03125 L 8.9375 37.03125 Z"/></svg>